<svg xmlns="http://www.w3.org/2000/svg" viewBox="0 0 2541 584.76">
  <g data-name="EDUCATION ILLO">
    <path fill="#e5e5e5" d="M2390.03 280.86l49.23 10.9v-21.8l-49.23 10.9"/>
    <path fill="#efefef" d="M1874.44 321.83h193.17v262.93h-193.17z"/>
    <path fill="#e5e5e5" d="M1998.39 257.09h39.32v39.32h-39.32z"/>
    <path fill="#f4f4f4" d="M1971.03 231.5l-96.59 90.33h193.18l-96.59-90.33M1687.53 395.17l51.42-51.43h135.49v51.43h-186.91"/>
    <path fill="#e5e5e5" d="M1687.53 395.17h186.91v189.59h-186.91z"/>
    <path fill="#f4f4f4" d="M2254.53 395.17l-51.42-51.43h-135.49v51.43h186.91"/>
    <path fill="#e5e5e5" d="M2067.62 395.17h186.91v189.59h-186.91z"/>
    <circle cx="1971.03" cy="285.16" r="15.2" fill="#fafafb"/>
    <path fill="#eaeaea" d="M1874.44 321.83h193.17v13.19h-193.17z"/>
    <path fill="#f9f9fb" d="M1937.2 489.76h29v65h-29zM1975.86 489.76h29v65h-29z"/>
    <path fill="#fafafb" d="M1912.39 369.17h21.38v31.5h-21.38zM1960.34 369.17h21.38v31.5h-21.38zM2008.28 369.17h21.38v31.5h-21.38zM1912.39 422.67h21.38v31.5h-21.38zM1960.34 422.67h21.38v31.5h-21.38zM2008.28 422.67h21.38v31.5h-21.38z"/>
    <path fill="#efefef" d="M2254.53 486.43h83v98.33h-83z"/>
    <path fill="#eaeaea" d="M2254.53 470.17h83v16.26h-83z"/>
    <path fill="#e5e5e5" d="M2337.53 444.43H2541v140.33h-203.47z"/>
    <path fill="#f9f9fb" d="M2390.02 478.17v16.5h-31.5v-16.5zM2455.01 478.17v16.5h-31.5v-16.5zM2390.03 526.82v16.5h-31.5v-16.5zM2520 478.17v16.5h-31.5v-16.5zM2520.01 526.82v16.5h-31.5v-16.5z"/>
    <path fill="#efefef" d="M2442.68 334.46V261.1h-6.83v73.36h-12.92v22.64h32.67v-22.64h-12.92"/>
    <path fill="#f4f4f4" d="M2541 446h-203.47v-1.6a100.34 100.34 0 0 1 1.1-13.52 101.75 101.75 0 0 1 201.23 0 100.34 100.34 0 0 1 1.1 13.52c.04.6.04 1.1.04 1.6z"/>
    <circle cx="2439.26" cy="395.17" r="21.4" fill="#fafafb"/>
    <path fill="#efefef" d="M2254.53 444.43h33.67v25.74h-33.67z"/>
    <path fill="#f4f4f4" d="M2476.26 394.17h-36v-32.41h-2v32.41h-36v2h36v39.59h2v-39.59h36v-2"/>
    <path fill="#fafafc" d="M2463.63 584.76v-45a24.37 24.37 0 1 0-48.74 0v45z"/>
    <circle cx="2439.26" cy="257.09" r="7.47" fill="#e5e5e5"/>
    <path fill="#efefef" d="M1597.03 459.96h90.5v124.8h-90.5z"/>
    <path fill="#eaeaea" d="M1597.03 448.76h90.5v11.2h-90.5z"/>
    <path fill="#f4f4f4" d="M1642.28 408.67l-45.25 40.66h90.5l-45.25-40.66"/>
    <path fill="#eaeaea" d="M1582.09 554.43h14.94v30.33h-14.94zM1567.14 569.59h14.94v15.17h-14.94z"/>
    <path fill="#f8f8fb" d="M1768.46 576.75a9 9 0 0 0-7 3.4 14.37 14.37 0 0 0-27.64 4.61h43.64a9 9 0 0 0-9-8.01zM2261.87 583.63a6 6 0 0 0 0-.61 24.48 24.48 0 0 0-6.42-15c-.29-.31-.58-.62-.88-.91a24.74 24.74 0 0 0-38.51 4.74c-.34.56-.66 1.13-.95 1.71a28.25 28.25 0 0 0-31.88 6.57l-.32-.27a11 11 0 0 0-16.94 4.26 6.43 6.43 0 0 0-.24.61h96.22c-.04-.35-.06-.73-.08-1.1zM2541 566.44a17.23 17.23 0 0 0-16.23 11.44 26 26 0 0 0-38.25 6.27c-.14.2-.27.4-.39.61H2541z"/>
    <path fill="#efefef" d="M270.03 362.34h325.86v222.01H270.03z"/>
    <path fill="#eaeaea" d="M255.53 344.93H610.4v17.4H255.53z"/>
    <path fill="#f4f4f4" d="M432.96 255.75l-177.43 89.76H610.4l-177.44-89.76"/>
    <path fill="#fafafb" d="M567.27 362.34h20.61v222.01h-20.61zM505.41 362.34h20.61v222.01h-20.61zM339.92 362.34h20.6v222.01h-20.6zM278.05 362.34h20.61v222.01h-20.61z"/>
    <path fill="#e5e5e5" d="M559.26 362.34h36.63v10.74h-36.63zM497.39 362.34h36.63v10.74h-36.63zM331.9 362.34h36.63v10.74H331.9zM270.03 362.34h36.63v10.74h-36.63zM559.26 574.13h36.63v10.21h-36.63zM497.39 574.13h36.64v10.22h-36.64zM331.9 574.13h36.63v10.22H331.9zM270.03 574.13h36.64v10.22h-36.64z"/>
    <path fill="#fafafb" d="M406.62 499.19h52.68v54.95h-52.68z"/>
    <path fill="#eaeaea" d="M391.77 554.14h82.39v10.21h-82.39zM378.46 564.35h109v10.21h-109z"/>
    <path fill="#eaeaea" d="M368.53 574.55h128.86v9.8H368.53z"/>
    <path fill="#e5e5e5" d="M391.77 561.8h82.39v2.55h-82.39zM378.46 572h109v2.55h-109zM368.15 581.62h129.62v2.73H368.15z"/>
    <circle cx="432.96" cy="303.63" r="19.07" fill="#f9f9fb"/>
    <path fill="#efefef" d="M431.96 499.19h2v54.95h-2z"/>
    <path fill="#e5e5e5" d="M595.89 412.08h271.79v172.27H595.89z"/>
    <path fill="#f4f4f4" d="M595.89 395.17h271.79v16.92H595.89z"/>
    <path fill="#f9f9fb" d="M681.78 537.39A15.75 15.75 0 0 0 666 553.14v31.49h31.49v-31.49a15.75 15.75 0 0 0-15.71-15.75zM781.79 537.39A15.75 15.75 0 0 0 766 553.14v31.49h31.49v-31.49a15.75 15.75 0 0 0-15.7-15.75zM1642.28 537.39a15.75 15.75 0 0 0-15.75 15.75v31.49H1658v-31.49a15.75 15.75 0 0 0-15.72-15.75z"/>
    <path fill="#e5e5e5" d="M915.03 505.25h4v79.1h-4z"/>
    <path fill="#e5e5e5" d="M946.28 552.49h-58.5L917.03 449l29.25 103.49M952.56 527.64h4v56.71h-4z"/>
    <path fill="#efefef" d="M975.53 561.51h-41.94l20.97-68.54 20.97 68.54"/>
    <path fill="#f8f8fb" d="M318.67 584.35h-37.78A19 19 0 0 1 298.65 567h1.13a18.91 18.91 0 0 1 18.89 17.39z"/>
    <path fill="#f8f8fb" d="M343 584.35h-36.65c.1-.17.21-.33.32-.49a21.63 21.63 0 0 1 33.25-3.34c.26.26.52.53.77.8a22 22 0 0 1 2.31 3.03z"/>
    <path fill="#f8f8fb" d="M353.55 584.35H338.3a8.4 8.4 0 0 1 1.62-2.33c.24-.24.5-.47.77-.7a8.43 8.43 0 0 1 12.86 3zM867.43 567.1a16.72 16.72 0 0 0-2.75.22 17.26 17.26 0 0 0-11.33 7.07 10.65 10.65 0 0 0-3.16-.47 10.84 10.84 0 0 0-10.83 10.43h45.32a17.25 17.25 0 0 0-17.25-17.25z"/>
    <path fill="#e5e5e5" d="M788.54 374.08h16.33v21.08h-16.33zM814.54 374.08h16.33v21.08h-16.33z"/>
    <path fill="#efefef" d="M0 405.17h135.02v179.18H0z"/>
    <path fill="#e5e5e5" d="M135.02 449.46h135.02v134.88H135.02z"/>
    <path fill="#eaeaea" d="M135.02 441.84h135.02v9.53H135.02z"/>
    <path fill="#e5e5e5" d="M154.53 365.51h18.5v57.73h-18.5z"/>
    <path fill="#f4f4f4" d="M135.02 441.84l56.61-56.61h78.4v56.61H135.02"/>
    <path fill="#f8f8fb" d="M90.85 573.92a10.65 10.65 0 0 0-3.16.47 17.25 17.25 0 0 0-31.33 10h45.32a10.84 10.84 0 0 0-10.83-10.47z"/>
    <circle cx="40.64" cy="455.53" r="14.41" fill="#f9f9fb"/>
    <circle cx="94.38" cy="455.53" r="14.41" fill="#f9f9fb"/>
    <circle cx="40.64" cy="516.39" r="14.41" fill="#f9f9fb"/>
    <circle cx="94.38" cy="516.39" r="14.41" fill="#f9f9fb"/>
    <path fill="#e5e5e5" d="M0 389.25h135.02v15.92H0z"/>
    <path fill="#f9f9fb" d="M183.9 527.32h37.25v57.03H183.9zM168.02 471.25h69v29.5h-69z"/>
    <path fill="#e5e5e5" d="M182.9 471.25h2v29.5h-2zM220.15 471.25h2v29.5h-2z"/>
    <path fill="#f4f4f4" d="M465.96 302.63h-32v-29.3h-2v29.3h-32v2h32v34.7h2v-34.7h32v-2"/>
    <path fill="#f9f9fb" d="M1722.35 437.46h21.38v31.5h-21.38zM1770.3 437.46h21.38v31.5h-21.38zM1818.24 437.46h21.38v31.5h-21.38zM1722.35 490.96h21.38v31.5h-21.38zM1770.3 490.96h21.38v31.5h-21.38zM1818.24 490.96h21.38v31.5h-21.38zM2102.44 437.46h21.38v31.5h-21.38zM2150.38 437.46h21.38v31.5h-21.38zM2198.33 437.46h21.38v31.5h-21.38zM2102.44 490.96h21.38v31.5h-21.38zM2150.38 490.96h21.38v31.5h-21.38zM2198.33 490.96h21.38v31.5h-21.38z"/>
    <path fill="#f4f4f4" d="M2000.61 283.67h-28.58V257.1h-2v26.57h-28.58v2h28.58v30.58h2v-30.58h28.58v-2"/>
    <path fill="#e5e5e5" d="M1907.38 400.57h31.4v5.51h-31.4zM1955.33 400.57h31.4v5.51h-31.4zM2003.27 400.57h31.4v5.51h-31.4zM1907.38 454.17h31.4v5.51h-31.4zM1955.33 454.17h31.4v5.51h-31.4zM2003.27 454.17h31.4v5.51h-31.4z"/>
    <path fill="#efefef" d="M1717.34 468.96h31.4v5.51h-31.4zM1765.28 468.96h31.4v5.51h-31.4zM1813.23 468.96h31.4v5.51h-31.4zM1717.34 522.56h31.4v5.51h-31.4zM1765.28 522.56h31.4v5.51h-31.4zM1813.23 522.56h31.4v5.51h-31.4zM2097.43 468.96h31.4v5.51h-31.4zM2145.37 468.96h31.4v5.51h-31.4zM2193.32 468.96h31.4v5.51h-31.4zM2097.43 522.56h31.4v5.51h-31.4zM2145.37 522.56h31.4v5.51h-31.4zM2193.32 522.56h31.4v5.51h-31.4z"/>
    <path fill="#e5e5e5" d="M2438.26 478.18h2v16.5h-2zM2373.28 478.18h2v16.5h-2zM2503.25 478.18h2v16.5h-2zM2373.28 526.82h2v16.5h-2zM2503.25 526.82h2v16.5h-2zM1765.28 316.25h15.7v28.05h-15.7z"/>
    <path fill="#fafafb" d="M721.1 430.91h21.38v31.5H721.1zM721.1 484.41h21.38v31.5H721.1z"/>
    <path fill="#efefef" d="M716.08 462.41h31.4v5.51h-31.4z"/>
    <path fill="#fafafb" d="M643.15 430.91h21.38v31.5h-21.38zM643.15 484.41h21.38v31.5h-21.38z"/>
    <path fill="#efefef" d="M638.14 462.41h31.4v5.51h-31.4zM638.14 516.01h31.4v5.51h-31.4zM716.08 516.01h31.4v5.51h-31.4z"/>
    <path fill="#fafafb" d="M799.04 484.41h21.38v31.5h-21.38zM799.04 430.91h21.38v31.5h-21.38z"/>
    <path fill="#efefef" d="M794.03 462.41h31.4v5.51h-31.4zM794.03 516.01h31.4v5.51h-31.4z"/>
    <path fill="#fafafb" d="M392.5 383.4h21.38v31.5H392.5z"/>
    <path fill="#e5e5e5" d="M387.49 414.81h31.4v5.51h-31.4z"/>
    <path fill="#fafafb" d="M452.04 383.4h21.38v31.5h-21.38z"/>
    <path fill="#e5e5e5" d="M447.03 414.81h31.4v5.51h-31.4z"/>
    <path fill="#fafafb" d="M392.5 440.45h21.38v31.5H392.5z"/>
    <path fill="#e5e5e5" d="M387.49 471.85h31.4v5.51h-31.4z"/>
    <path fill="#fafafb" d="M452.04 440.45h21.38v31.5h-21.38z"/>
    <path fill="#e5e5e5" d="M447.03 471.85h31.4v5.51h-31.4z"/>
    <path fill="#eaeaea" d="M1929.84 554.14h82.39v10.21h-82.39zM1916.53 564.35h109v10.21h-109z"/>
    <path fill="#eaeaea" d="M1906.22 574.55h129.62v10.21h-129.62z"/>
    <path fill="#e5e5e5" d="M1929.84 561.8h82.39v2.55h-82.39zM1916.53 572h109v2.55h-109zM1906.22 581.62h129.62v3.14h-129.62z"/>
    <path fill="#eaeaea" d="M2541 444.43V446h-203.47v-1.6a100.34 100.34 0 0 1 1.1-13.52h201.23a100.34 100.34 0 0 1 1.1 13.52z"/>
    <path fill="#e5e5e5" d="M1687.53 384.66h21.92v10.51h-21.92zM1728.78 384.66h21.92v10.51h-21.92zM1770.03 384.66h21.92v10.51h-21.92zM1811.28 384.66h21.92v10.51h-21.92zM1852.53 384.66h21.92v10.51h-21.92zM2067.62 384.66h21.92v10.51h-21.92zM2108.87 384.66h21.92v10.51h-21.92zM2150.11 384.66h21.92v10.51h-21.92zM2191.36 384.66h21.92v10.51h-21.92zM2232.61 384.66h21.92v10.51h-21.92z"/>
    <path fill="#eaeaea" d="M1083.63 584.64a14.38 14.38 0 0 1 28.75 0M1109.34 584.79a9 9 0 1 1 18 0"/>
    <path fill="#e5e5e5" d="M1513.63 584.64a14.38 14.38 0 0 1 28.75 0M1539.34 584.79a9 9 0 1 1 18 0"/>
    <path fill="#e5e5e5" d="M1539.2 516.67h4v66.71h-4z"/>
    <path fill="#efefef" d="M1562.17 550.54h-41.94L1541.2 482l20.97 68.54"/>
    <path fill="#f4f4f4" d="M1312.92 552.46h63.06v26.12h-63.06z"/>
    <path fill="#eaeaea" d="M1316.56 578.57h5.12v6.09h-5.12zM1367.22 578.57h5.12v6.09h-5.12zM1306.72 574.05h75.46v4.52h-75.46z"/>
    <path fill="none" stroke="#fcfcfc" stroke-miterlimit="10" d="M1382.18 558.63h-78.36M1382.18 567.67h-78.36"/>
    <path fill="#f4f4f4" d="M1167.92 552.46h63.06v26.12h-63.06z"/>
    <path fill="#eaeaea" d="M1171.56 578.57h5.12v6.09h-5.12zM1222.22 578.57h5.12v6.09h-5.12zM1161.72 574.05h75.46v4.52h-75.46z"/>
    <path fill="none" stroke="#fcfcfc" stroke-miterlimit="10" d="M1237.18 558.63h-78.36M1237.18 567.67h-78.36"/>
    <path fill="#eaeaea" d="M1488.77 584.66h-41.17a20.64 20.64 0 0 1 41.17 0z"/>
    <path fill="#eaeaea" d="M1461.16 584.66H1421a24 24 0 0 1 2.63-3.5 23.57 23.57 0 0 1 37.52 3.5z"/>
    <path fill="#eaeaea" d="M1426.34 584.66h-16.81a9.19 9.19 0 0 1 16.81 0z"/>
    <path fill="#efefef" d="M1037.07 584.66h-49.36a24.74 24.74 0 0 1 49.36 0z"/>
    <path fill="#efefef" d="M1004 584.66h-48.18a28.74 28.74 0 0 1 3.15-4.2 28.25 28.25 0 0 1 45 4.2z"/>
    <path fill="#efefef" d="M962.22 584.66h-20.16a11 11 0 0 1 20.16 0z"/>
  </g>
</svg>