<svg width="101" height="100" viewBox="0 0 101 100" xmlns="http://www.w3.org/2000/svg" xmlns:xlink="http://www.w3.org/1999/xlink"><title>Icon</title><defs><path d="M81.5 13.5v-5a1.5 1.5 0 0 1 3 0v5h5a1.5 1.5 0 0 1 0 3h-5v5a1.5 1.5 0 0 1-3 0v-5h-5a1.5 1.5 0 0 1 0-3h5z" id="b"/><filter x="-12.5%" y="-6.7%" width="125%" height="126.7%" filterUnits="objectBoundingBox" id="a"><feOffset dy="1" in="SourceAlpha" result="shadowOffsetOuter1"/><feGaussianBlur stdDeviation=".5" in="shadowOffsetOuter1" result="shadowBlurOuter1"/><feColorMatrix values="0 0 0 0 0.156862745 0 0 0 0 0.505882353 0 0 0 0 0.42745098 0 0 0 0.5 0" in="shadowBlurOuter1"/></filter></defs><g transform="translate(0 3)" fill="none" fill-rule="evenodd"><g transform="translate(0 9)"><path d="M44 88c43.66 0 44-19.7 44-44S87.66 0 44 0 0 19.7 0 44s.34 44 44 44z" fill="#6D7278"/><path d="M22.128 21h43.744c1.783 0 2.43.186 3.082.534.652.349 1.163.86 1.512 1.512.348.652.534 1.299.534 3.082V53H17V26.128c0-1.783.186-2.43.534-3.082a3.635 3.635 0 0 1 1.512-1.512c.652-.348 1.299-.534 3.082-.534z" fill="#414448"/><path fill="#414448" d="M37 61L50 61 51 68 36 68z"/><rect fill="#FFF" x="33" y="68" width="21" height="2" rx="1"/><path d="M17 53h54v2.872c0 1.783-.186 2.43-.534 3.082a3.635 3.635 0 0 1-1.512 1.512c-.652.348-1.299.534-3.082.534H22.128c-1.783 0-2.43-.186-3.082-.534a3.635 3.635 0 0 1-1.512-1.512c-.348-.652-.534-1.299-.534-3.082V53zm27 6a2 2 0 1 0 0-4 2 2 0 0 0 0 4z" fill="#FFF"/></g><circle stroke="#FFF" stroke-width="3" fill="#36AC91" cx="83" cy="15" r="16.5"/><use fill="#000" filter="url(#a)" xlink:href="#b"/><use fill="#FFF" xlink:href="#b"/></g></svg>